<svg width="119" height="172" viewBox="0 0 119 172" fill="none" xmlns="http://www.w3.org/2000/svg">
<path d="M10.6573 9.95016L35.7092 9.95016L21.3147 24.8678C22.6988 25.4203 24.9133 26.6634 28.9272 29.7022C32.1106 32.0503 33.0794 35.5035 34.1867 39.0947C35.4324 43.3767 36.678 47.7967 41.6607 50.9736C43.7369 52.3548 47.0587 52.0786 49.6884 50.4211C52.3182 48.7636 53.5638 46.0011 53.0102 43.1004C52.3182 38.8185 49.55 37.2991 47.0586 37.2991C47.0586 37.2991 47.0587 37.2991 46.9202 37.2991C44.5673 37.2991 42.6296 38.6804 42.4912 40.3379C41.9376 44.2054 44.8441 45.0342 44.9825 45.0342L44.5673 46.5536C43.0448 46.1392 40.415 44.3436 40.8303 40.0617C41.1071 37.5754 43.7369 35.6416 46.7818 35.6416C46.7818 35.6416 46.7818 35.6416 46.9202 35.6416C49.9652 35.6416 53.5638 37.5754 54.3943 42.8242C54.9479 46.4154 53.4254 49.7305 50.3805 51.6642C47.3355 53.598 43.3216 53.8742 40.6919 52.2167C35.1555 48.6254 33.7715 43.791 32.5258 39.5091C31.5569 36.1941 30.5881 33.0172 27.8199 30.8072C21.7299 26.1109 19.7922 25.9728 19.7922 25.9728L18.1313 25.8347L19.5154 24.7297L32.249 11.4696L12.3182 11.4696L12.3182 153.049L10.7957 153.049L10.7957 9.95016L10.6573 9.95016Z" fill="#AC8169"/>
<path d="M55.7785 0.281297L88.166 0.2813L88.166 1.80069L56.3321 1.80069L32.9411 23.7627C37.7854 24.7296 41.2456 30.1165 42.6297 32.4646C43.5985 31.4978 44.9826 30.669 46.7819 30.3927C49.5501 29.7021 52.3183 30.1165 54.3944 31.6359C58.685 34.5365 57.7162 40.1997 57.7162 40.4759L56.1937 40.1997C56.1937 40.1997 56.8858 35.3653 53.564 32.879C51.9031 31.774 49.5501 31.3596 47.1972 31.9121C45.3979 32.3265 43.8754 33.2934 43.3217 34.3984L42.6297 35.7796L41.9376 34.3984C41.9376 34.2603 37.5086 25.2821 31.4186 25.2821C31.4186 25.2821 31.4186 25.2821 31.2802 25.2821L29.3425 25.2821L55.7785 0.281297Z" fill="#AC8169"/>
<path d="M2.99062e-05 3.73445L52.3184 3.73445L52.3184 5.25385L1.66095 5.25384L1.66093 171.281L1.52588e-05 171.281L2.99062e-05 3.73445Z" fill="#AC8169"/>
<path d="M106.159 0.281302L118.754 0.281303L118.754 1.8007L106.989 1.80069C105.605 3.59633 97.9929 12.5745 88.1659 12.5745L65.0517 12.5745L65.0517 11.7458C65.0517 11.7458 65.3286 8.70698 63.5292 6.77322C62.5604 5.80634 61.1763 5.25383 59.377 5.25383C55.9168 5.25383 53.9791 8.1545 53.4254 10.5026C52.8718 13.127 53.5639 15.6133 55.2247 16.3039C56.8856 17.1326 57.4393 16.442 57.7161 16.3039C58.8234 15.337 58.8234 12.8507 58.4081 12.1601L59.7922 11.4695C59.9306 11.7457 63.9445 19.6189 61.3147 24.1771C60.2074 26.1108 58.4081 27.2158 55.64 27.4921C51.4877 27.9065 49.6884 25.9727 48.9964 24.7296C48.0275 23.0721 48.0275 21.0002 48.9964 19.6189C49.55 18.7901 50.5189 18.3758 51.4877 18.5139L51.2109 20.0333C51.0725 20.0333 50.6573 19.8952 50.242 20.4477C49.6884 21.1383 49.55 22.6577 50.3805 23.9008C51.2109 25.4202 53.1486 26.1108 55.64 25.8346C57.8545 25.5583 59.377 24.8677 60.2074 23.3483C61.4531 21.1383 60.7611 17.9614 60.069 15.4751C59.7922 16.1658 59.5154 16.8564 58.9618 17.2708C58.2697 17.9614 56.8856 18.652 54.8095 17.547C52.4566 16.442 51.4877 13.4032 52.1798 9.9501C52.8718 6.91133 55.2247 3.45822 59.6538 3.45822C61.8683 3.45822 63.6677 4.14884 64.9133 5.5301C66.4358 7.18761 66.851 9.53573 66.851 10.7789L88.3043 10.7789C98.2697 10.7789 106.021 0.419429 106.159 0.281302Z" fill="#AC8169"/>
<path d="M19.6537 35.0891L19.7921 35.0891C23.9444 35.2272 28.3735 38.4041 28.6503 43.1004C28.9271 47.106 26.1589 50.9735 23.3908 54.9792C20.761 58.7086 18.1312 62.5761 17.3008 66.9962L17.3008 81.4994L1.52224 100.423L0.276575 99.4558L15.7783 80.9469L15.7783 66.858C16.6087 62.0236 19.5153 58.018 22.1451 54.1505C24.7748 50.2829 27.4046 46.6916 27.1278 43.2385C26.851 38.9566 22.6987 36.7466 19.7921 36.6085C18.8233 36.6085 16.6087 36.7466 16.3319 39.2328C15.7783 44.6198 20.761 46.5535 20.8994 46.5535L20.3458 47.9348C20.3458 47.9348 14.1174 45.5866 14.8094 38.9566C14.9479 36.6084 16.8856 35.0891 19.6537 35.0891Z" fill="#AC8169"/>
</svg>
